HIERARCHY
ROOT RootJoint
{
    OFFSET   0.000000   0.000000   0.000000
    CHANNELS 6 Xposition Yposition Zposition Xrotation Yrotation Zrotation
    JOINT pelvis_lowerback
    {
        OFFSET   0.000000   0.093605   0.000000
        CHANNELS 3 Xrotation Yrotation Zrotation
        JOINT lowerback_torso
        {
            OFFSET   0.000000   0.100000   0.000000
            CHANNELS 3 Xrotation Yrotation Zrotation
            JOINT torso_head
            {
                OFFSET   0.000000   0.282350   0.000000
                CHANNELS 3 Xrotation Yrotation Zrotation
                End Site
                {
                    OFFSET   0.000000   0.192650   0.000000
                }
            }
            JOINT rTorso_Clavicle
            {
                OFFSET  -0.001000   0.157500   0.000000
                CHANNELS 3 Xrotation Yrotation Zrotation
                JOINT rShoulder
                {
                    OFFSET  -0.117647   0.000000   0.000000
                    CHANNELS 3 Xrotation Yrotation Zrotation
                    JOINT rElbow
                    {
                        OFFSET  -0.245000   0.000000   0.000000
                        CHANNELS 3 Xrotation Yrotation Zrotation
                        JOINT rWrist
                        {
                            OFFSET  -0.240000   0.000000   0.000000
                            CHANNELS 3 Xrotation Yrotation Zrotation
                            End Site
                            {
                                OFFSET  -0.116353  -0.002500   0.000000
                            }
                        }
                    }
                }
            }
            JOINT lTorso_Clavicle
            {
                OFFSET   0.001000   0.157500   0.000000
                CHANNELS 3 Xrotation Yrotation Zrotation
                JOINT lShoulder
                {
                    OFFSET   0.117647   0.000000   0.000000
                    CHANNELS 3 Xrotation Yrotation Zrotation
                    JOINT lElbow
                    {
                        OFFSET   0.245000   0.000000   0.000000
                        CHANNELS 3 Xrotation Yrotation Zrotation
                        JOINT lWrist
                        {
                            OFFSET   0.240000   0.000000   0.000000
                            CHANNELS 3 Xrotation Yrotation Zrotation
                            End Site
                            {
                                OFFSET   0.116353  -0.002500   0.000000
                            }
                        }
                    }
                }
            }
        }
    }
    JOINT rHip
    {
        OFFSET  -0.100000  -0.051395   0.000000
        CHANNELS 3 Xrotation Yrotation Zrotation
        JOINT rKnee
        {
            OFFSET   0.000000  -0.410000   0.000000
            CHANNELS 3 Xrotation Yrotation Zrotation
            JOINT rAnkle
            {
                OFFSET   0.000000  -0.390000   0.000000
                CHANNELS 3 Xrotation Yrotation Zrotation
                JOINT rToeJoint
                {
                    OFFSET   0.000000  -0.050000   0.130000
                    CHANNELS 3 Xrotation Yrotation Zrotation
                    End Site
                    {
                        OFFSET  -0.010000   0.002000   0.060000
                    }
                }
            }
        }
    }
    JOINT lHip
    {
        OFFSET   0.100000  -0.051395   0.000000
        CHANNELS 3 Xrotation Yrotation Zrotation
        JOINT lKnee
        {
            OFFSET   0.000000  -0.410000   0.000000
            CHANNELS 3 Xrotation Yrotation Zrotation
            JOINT lAnkle
            {
                OFFSET   0.000000  -0.390000   0.000000
                CHANNELS 3 Xrotation Yrotation Zrotation
                JOINT lToeJoint
                {
                    OFFSET   0.000000  -0.050000   0.130000
                    CHANNELS 3 Xrotation Yrotation Zrotation
                    End Site
                    {
                        OFFSET   0.010000   0.002000   0.060000
                    }
                }
            }
        }
    }
}
MOTION
Frames: 11
Frame Time:   0.008333
 -2.376719   0.925631   3.975860   0.000000   0.000000   0.000000   0.000000   0.000000   0.000000   0.000000   0.000000   0.000000   0.000000   0.000000   0.000000   0.000000   0.000000   0.000000   0.000000   0.000000   0.000000   0.000000   0.000000   0.000000   0.000000   0.000000   0.000000   0.000000   0.000000   0.000000   0.000000   0.000000   0.000000   0.000000   0.000000   0.000000   0.000000   0.000000   0.000000   0.000000   0.000000   0.000000   0.000000   0.000000   0.000000   0.000000   0.000000   0.000000   0.000000   0.000000   0.000000   0.000000   0.000000   0.000000   0.000000   0.000000   0.000000   0.000000   0.000000   0.000000   0.000000   0.000000   0.000000
 -2.376499   0.926278   3.975968  -0.632447   0.188503   0.134836   0.579478  -0.013070  -0.112611   0.236882  -0.205031  -0.043968  -0.153155  -0.001787   0.031200   0.239999  -0.221271   0.527980   1.080806   0.349699   1.937417   0.024392   1.134944  -0.015138   0.468067  -0.716170  -3.243668   0.211924   0.174538  -0.579714   1.266664  -0.203459  -1.857944   0.030383  -1.399804   0.020676   0.501516   0.688070   3.300738   0.434167  -0.140100  -0.419416   0.944066   0.002360   0.000384  -0.994292  -0.377295   0.230802  -0.034780  -0.000016   0.000099   0.358502  -0.085298   0.070640   1.109642  -0.001966   0.001031  -1.070589   0.344476   0.135497   0.205202  -0.000607   0.000802
 -2.376242   0.927355   3.976136  -1.333972   0.419451   0.288001   1.121942  -0.046753  -0.225634   0.531133  -0.434393  -0.099584  -0.277579  -0.004884   0.060396   0.476504  -0.308814   1.780680   2.122360   0.846421   4.459699   0.057196   2.260265  -0.026401   0.971246  -1.044472  -5.823247   0.423308   0.188980  -1.894896   2.492118  -0.586576  -4.313084   0.071439  -2.784347   0.036236   1.049208   0.907216   5.942773   0.913238  -0.289813  -1.064022   1.984418   0.006425   0.000903  -1.919149  -0.740666   0.437251  -0.103224  -0.000186   0.000244   0.786752  -0.148075   0.328078   2.314596  -0.005756   0.002811  -2.069457   0.671340   0.269805   0.349775  -0.001162   0.001274
 -2.375983   0.928429   3.976356  -2.010834   0.658441   0.440657   1.606334  -0.093400  -0.332059   0.796857  -0.666488  -0.155664  -0.398557  -0.007688   0.088237   0.693951  -0.294597   3.465353   3.113274   1.459169   7.360377   0.089928   3.337750  -0.033831   1.464470  -1.159225  -7.547588   0.614627   0.088417  -3.646966   3.666223  -1.111822  -7.155375   0.112486  -4.108897   0.046802   1.590328   0.880314   7.716962   1.369530  -0.443522  -1.868309   2.984772   0.010956   0.001125  -2.779328  -1.085717   0.622643  -0.166429  -0.000411   0.000334   1.224094  -0.192985   0.759899   3.472852  -0.010247   0.004699  -3.000886   0.977509   0.402021   0.479507  -0.001723   0.001603
 -2.375767   0.929170   3.976631  -2.645668   0.888226   0.591282   2.040457  -0.147777  -0.439569   1.025600  -0.895203  -0.223803  -0.520247  -0.010157   0.118992   0.890579  -0.214671   5.394516   4.051614   2.170316  10.515848   0.118508   4.360799  -0.038425   1.947762  -1.142823  -8.611510   0.784006  -0.084727  -5.683154   4.735949  -1.725366 -10.118910   0.147671  -5.367296   0.053107   2.124457   0.697178   8.754643   1.789269  -0.599298  -2.792271   3.922240   0.015240   0.000959  -3.581409  -1.412605   0.789320  -0.229697  -0.000671   0.000404   1.655929  -0.223799   1.337799   4.563616  -0.014760   0.006425  -3.871077   1.263744   0.531623   0.592839  -0.002205   0.001788
 -2.375612   0.929327   3.976967  -3.236983   1.101615   0.738087   2.432721  -0.205890  -0.551834   1.223096  -1.116379  -0.303701  -0.640566  -0.012567   0.149067   1.066635  -0.096632   7.449947   4.925689   2.955820  13.809056   0.141056   5.326971  -0.040890   2.419783  -1.043593  -9.199551   0.931110  -0.296528  -7.865938   5.697685  -2.393237 -13.080208   0.174631  -6.556100   0.056271   2.646730   0.419478   9.273325   2.171160  -0.755118  -3.804033   4.795870   0.018931   0.000476  -4.329806  -1.721652   0.939359  -0.292922  -0.000939   0.000461   2.077911  -0.243548   2.034264   5.587415  -0.018890   0.007900  -4.684310   1.530993   0.658128   0.691780  -0.002579   0.001861
 -2.375485   0.928704   3.977366  -3.786923   1.297102   0.877093   2.790111  -0.264851  -0.662349   1.396846  -1.327152  -0.379396  -0.757527  -0.015015   0.172722   1.225239   0.042672   9.589358   5.693992   3.762527  17.036700   0.156679   6.237931  -0.041477   2.879909  -0.881156  -9.397600   1.057547  -0.525106 -10.102673   6.558193  -3.092802 -15.978216   0.192980  -7.675024   0.057228   3.152698   0.087421   9.443663   2.516944  -0.909114  -4.878845   5.609080   0.021909  -0.000205  -5.028243  -2.013272   1.074618  -0.355049  -0.001194   0.000504   2.488007  -0.254587   2.822685   6.548221  -0.022382   0.009103  -5.444339   1.780265   0.781144   0.778543  -0.002836   0.001853
 -2.375369   0.926650   3.977529  -3.902444   1.391981   0.982765   2.781812  -0.343759  -0.721339   1.432533  -1.429614  -0.489308  -1.015833  -0.195920   0.134374   1.457064   0.265149  11.184895   6.459275   4.480104  20.031329   0.164126   7.169705  -0.042475   3.317278  -0.589381  -8.613810   1.322981  -0.741514 -11.547599   7.253086  -3.744142 -18.970423   0.200518  -8.780799   0.057250   3.641840  -0.432165   8.736558   2.390985  -1.318323  -5.893627   6.134637   0.021529  -0.002282  -5.034496  -2.421931   1.352780  -0.197206  -0.000066  -0.000633   2.574245  -0.112073   3.596982   6.893134  -0.020379   0.008444  -5.792163   2.003242   0.637545   0.953443  -0.003356   0.002250
 -2.375267   0.923372   3.977597  -3.954969   1.452132   1.076878   2.778108  -0.414392  -0.772844   1.420167  -1.509221  -0.593828  -1.281928  -0.372308   0.091108   1.657694   0.491935  12.494070   7.138954   5.185077  22.700012   0.163080   8.042107  -0.042174   3.741356  -0.277174  -7.913352   1.564083  -0.938258 -12.705278   7.875151  -4.366021 -21.640835   0.198013  -9.810613   0.055940   4.108102  -0.952308   8.093966   2.203820  -1.711864  -6.852839   6.561420   0.020254  -0.003639  -5.034145  -2.808197   1.611469  -0.005078   0.000965  -0.001786   2.603702   0.023296   4.333868   7.113236  -0.017803   0.007404  -6.119158   2.212034   0.504700   1.125879  -0.003696   0.002475
 -2.375173   0.918996   3.977641  -3.991004   1.496708   1.162634   2.785582  -0.475511  -0.819857   1.403552  -1.575840  -0.690303  -1.531124  -0.537429   0.049192   1.831066   0.710889  13.591790   7.742211   5.868201  25.097522   0.156818   8.857314  -0.040972   4.146706   0.022552  -7.419906   1.779529  -1.120112 -13.657764   8.430592  -4.960438 -24.038602   0.189476 -10.769618   0.053673   4.550467  -1.436025   7.656622   2.007924  -2.075824  -7.755450   6.940484   0.018715  -0.004478  -5.033457  -3.169264   1.852690   0.171288   0.001643  -0.002561   2.608159   0.147435   5.029318   7.294329  -0.015406   0.006403  -6.425446   2.407274   0.382039   1.282251  -0.003819   0.002537
 -2.375086   0.913612   3.977694  -4.020090   1.533561   1.241364   2.799627  -0.528360  -0.862717   1.389166  -1.632819  -0.779038  -1.761147  -0.691480   0.009272   1.983558   0.915862  14.526386   8.279633   6.522287  27.267241   0.147494   9.617579  -0.039130   4.533373   0.300745  -7.098125   1.974027  -1.285311 -14.454472   8.928105  -5.524704 -26.207697   0.177504 -11.662305   0.050717   4.970828  -1.880525   7.391572   1.816744  -2.412077  -8.601111   7.287753   0.017111  -0.004950  -5.032076  -3.506398   2.077780   0.333177   0.002057  -0.003037   2.597523   0.261694   5.681286   7.454268  -0.013288   0.005511  -6.711425   2.589799   0.268634   1.426087  -0.003797   0.002501
